<?xml version="1.0" standalone="no"?>
<!DOCTYPE svg PUBLIC "-//W3C//DTD SVG 20010904//EN"
 "http://www.w3.org/TR/2001/REC-SVG-20010904/DTD/svg10.dtd">
<svg version="1.0" xmlns="http://www.w3.org/2000/svg"
 width="16.000000pt" height="16.000000pt" viewBox="0 0 16.000000 16.000000"
 preserveAspectRatio="xMidYMid meet">
<metadata>
Created by potrace 1.11, written by Peter Selinger 2001-2013
</metadata>
<g transform="translate(0.000000,16.000000) scale(0.015686,-0.015686)"
fill="#000000" stroke="none">
<path d="M422 954 c-93 -25 -164 -66 -234 -135 -237 -233 -218 -630 34 -760
138 -71 381 -63 515 17 323 194 365 691 71 840 -105 53 -270 70 -386 38z m260
-45 c111 -24 206 -97 250 -194 19 -42 23 -67 22 -150 0 -162 -45 -276 -146
-372 -111 -104 -204 -137 -367 -131 -176 8 -271 60 -331 182 -56 113 -49 275
17 413 33 70 128 168 199 205 101 54 237 72 356 47z"/>
<path d="M450 805 c-25 -8 -61 -28 -80 -44 l-35 -30 74 -1 c63 0 97 -8 232
-55 87 -30 161 -55 164 -55 13 0 -6 53 -35 94 -42 61 -116 98 -204 103 -44 2
-88 -3 -116 -12z"/>
<path d="M282 678 c-28 -36 -63 -124 -73 -187 -7 -39 -9 -74 -6 -77 3 -3 68
22 144 57 76 34 163 73 193 86 41 19 51 27 39 33 -12 7 -276 100 -284 100 -1
0 -7 -6 -13 -12z"/>
<path d="M675 490 c-71 -33 -143 -65 -159 -73 -28 -13 -28 -13 95 -65 68 -29
127 -52 131 -52 13 0 66 114 73 156 3 21 9 51 11 67 4 18 1 27 -8 26 -7 0 -71
-27 -143 -59z"/>
<path d="M210 381 c0 -33 38 -103 77 -143 95 -96 249 -106 370 -24 l38 26 -62
0 c-55 0 -82 8 -236 75 -181 78 -187 80 -187 66z"/>
</g>
</svg>
